<svg xmlns="http://www.w3.org/2000/svg" viewBox="0 0 220 180" role="img" aria-label="MyHOME interi'o' logo">
  <g fill="none" stroke-linecap="round" stroke-linejoin="round">
    <path d="M20 110 q40 -80 110 -80 q70 0 90 60" stroke="#D4117A" stroke-width="14"/>
    <path d="M28 116 q40 -68 105 -68 q66 0 88 50" stroke="#F39200" stroke-width="12"/>
    <path d="M36 122 q40 -56 100 -56 q62 0 84 42" stroke="#1F4E8C" stroke-width="10"/>
    <path d="M46 128 q38 -44 92 -44 q56 0 80 34" stroke="#00A99D" stroke-width="9"/>
    <path d="M56 134 q34 -34 84 -34 q52 0 76 26" stroke="#7DB341" stroke-width="8"/>
  </g>
  <path d="M58 150 L110 80 L162 150 Z" fill="#7DB341" stroke="#2E2A2A" stroke-width="2.4" stroke-linejoin="round"/>
  <rect x="100" y="115" width="20" height="20" fill="#F4ECD8" stroke="#2E2A2A" stroke-width="2"/>
  <line x1="110" y1="115" x2="110" y2="135" stroke="#2E2A2A" stroke-width="2"/>
  <line x1="100" y1="125" x2="120" y2="125" stroke="#2E2A2A" stroke-width="2"/>
</svg>
